# xmcd
#
# Track frame offsets: 
#        150
#        12572
#        22468
#        32170
#        45320
#        57836
#        71069
#        84310
#        101827
#        113587
#
# Disc length: 1680 seconds
#
# Revision: 0
# Processed by: cddbd v1.5.2PL0 Copyright (c) Steve Scherf et al.
# Submitted via: ExactAudioCopy v1.3
#
DISCID=82068e0a
DTITLE=Mickey Gilley - City Lights
DYEAR=1975
DGENRE=Country
TTITLE0=City Lights
TTITLE1=Big Ole Texas Tears
TTITLE2=I Love You So Much It Hurts
TTITLE3=Backslide
TTITLE4=Fraulein
TTITLE5=More And More
TTITLE6=Even The Bad Times Are Good
TTITLE7=You Are My Sunshine
TTITLE8=Who'll Turn Out The Lights (In Your World Tonight)
TTITLE9=Goodnight Irene
EXTD=
EXTT0=
EXTT1=
EXTT2=
EXTT3=
EXTT4=
EXTT5=
EXTT6=
EXTT7=
EXTT8=
EXTT9=
PLAYORDER=
